<?xml version="1.0" encoding="UTF-8" standalone="no"?>
<!DOCTYPE svg PUBLIC "-//W3C//DTD SVG 1.1//EN" "http://www.w3.org/Graphics/SVG/1.1/DTD/svg11.dtd">
<svg width="100%" height="100%" viewBox="0 0 100 100" version="1.1" xmlns="http://www.w3.org/2000/svg" xmlns:xlink="http://www.w3.org/1999/xlink" xml:space="preserve" xmlns:serif="http://www.serif.com/" style="fill-rule:evenodd;clip-rule:evenodd;stroke-linejoin:round;stroke-miterlimit:2;">
    <path d="M100,10.37C100,4.647 95.353,0 89.63,0L10.37,0C4.647,0 0,4.647 0,10.37L0,89.63C0,95.353 4.647,100 10.37,100L89.63,100C95.353,100 100,95.353 100,89.63L100,10.37Z" style="fill:rgb(34,34,34);"/>
    <path d="M50,40.28C46.349,40.275 42.754,41.179 39.54,42.91L39.54,18.73L27.89,18.73L27.89,62.39C27.89,74.519 37.871,84.5 50,84.5C62.129,84.5 72.11,74.519 72.11,62.39C72.11,50.261 62.129,40.28 50,40.28ZM50,72.85C44.262,72.85 39.54,68.128 39.54,62.39C39.54,56.652 44.262,51.93 50,51.93C55.738,51.93 60.46,56.652 60.46,62.39C60.46,68.128 55.738,72.85 50,72.85Z" style="fill:white;fill-rule:nonzero;"/>
    <circle cx="61.37" cy="25.89" r="10.39" style="fill:url(#_Radial1);"/>
    <defs>
        <radialGradient id="_Radial1" cx="0" cy="0" r="1" gradientUnits="userSpaceOnUse" gradientTransform="matrix(34.06,0,0,34.06,52.92,14.94)"><stop offset="0" style="stop-color:rgb(255,0,0);stop-opacity:1"/><stop offset="0.49" style="stop-color:rgb(232,62,73);stop-opacity:1"/><stop offset="1" style="stop-color:rgb(255,0,255);stop-opacity:1"/></radialGradient>
    </defs>
</svg>
