<?xml version="1.0" encoding="UTF-8" standalone="no"?>
<!DOCTYPE svg PUBLIC "-//W3C//DTD SVG 1.1//EN" "http://www.w3.org/Graphics/SVG/1.1/DTD/svg11.dtd">
<svg width="100%" height="100%" viewBox="0 0 100 100" version="1.1" xmlns="http://www.w3.org/2000/svg" xmlns:xlink="http://www.w3.org/1999/xlink" xml:space="preserve" xmlns:serif="http://www.serif.com/" style="fill-rule:evenodd;clip-rule:evenodd;stroke-linejoin:round;stroke-miterlimit:2;">
    <g transform="matrix(1,0,0,0.999001,0.2,0.3996)">
        <path d="M10.1,-0.4L89.4,-0.4C95.1,-0.4 99.8,4.2 99.8,10L99.8,89.3C99.8,95 95.2,99.7 89.4,99.7L10.1,99.7C4.4,99.6 -0.2,95 -0.2,89.2L-0.2,10C-0.2,4.3 4.4,-0.4 10.1,-0.4Z" style="fill:rgb(29,29,27);fill-rule:nonzero;"/>
    </g>
    <path d="M59.9,67.8L39.6,67.8L39.6,31.4L59.9,31.4L59.9,67.8Z" style="fill:rgb(234,91,12);fill-rule:nonzero;"/>
    <path d="M40.9,49.6C40.9,42.5 44.2,35.8 49.8,31.4C39.7,23.5 25.2,25.2 17.3,35.3C9.4,45.4 11,59.9 21.1,67.8C29.5,74.4 41.4,74.4 49.8,67.8C44.2,63.5 40.9,56.7 40.9,49.6" style="fill:rgb(181,32,17);fill-rule:nonzero;"/>
    <path d="M87.3,49.6C87.3,62.4 76.9,72.8 64.1,72.8C58.9,72.8 53.8,71.1 49.8,67.8C59.9,59.9 61.6,45.3 53.7,35.3C52.6,33.8 51.2,32.5 49.8,31.4C59.9,23.5 74.4,25.2 82.3,35.3C85.5,39.4 87.3,44.4 87.3,49.6" style="fill:rgb(245,158,0);fill-rule:nonzero;"/>
</svg>
