<?xml version="1.0" encoding="UTF-8" standalone="no"?>
<!DOCTYPE svg PUBLIC "-//W3C//DTD SVG 1.1//EN" "http://www.w3.org/Graphics/SVG/1.1/DTD/svg11.dtd">
<svg width="100%" height="100%" viewBox="0 0 100 100" version="1.1" xmlns="http://www.w3.org/2000/svg" xmlns:xlink="http://www.w3.org/1999/xlink" xml:space="preserve" xmlns:serif="http://www.serif.com/" style="fill-rule:evenodd;clip-rule:evenodd;stroke-linejoin:round;stroke-miterlimit:2;">
    <path d="M100,10.37C100,4.647 95.353,0 89.63,0L10.37,0C4.647,0 0,4.647 0,10.37L0,89.63C0,95.353 4.647,100 10.37,100L89.63,100C95.353,100 100,95.353 100,89.63L100,10.37Z" style="fill:rgb(243,243,243);"/>
    <path d="M100,10.37C100,4.647 95.353,0 89.63,0L10.37,0C4.647,0 0,4.647 0,10.37L0,89.63C0,95.353 4.647,100 10.37,100L89.63,100C95.353,100 100,95.353 100,89.63L100,10.37ZM99.25,10.37L99.25,89.63C99.25,94.939 94.939,99.25 89.63,99.25C89.63,99.25 10.37,99.25 10.37,99.25C5.061,99.25 0.75,94.939 0.75,89.63L0.75,10.37C0.75,5.061 5.061,0.75 10.37,0.75L89.63,0.75C94.939,0.75 99.25,5.061 99.25,10.37Z" style="fill:rgb(222,222,222);"/>
    <g transform="matrix(1,0,0,1,-4,0)">
        <path d="M73.63,36.23C74.31,31.87 73.63,28.91 71.27,26.23C68.67,23.26 64,22 58,22L40.58,22C39.362,22.004 38.315,22.897 38.12,24.1L30.88,70.1C30.867,70.179 30.86,70.26 30.86,70.34C30.86,71.152 31.529,71.82 32.34,71.82C32.344,71.82 32.347,71.82 32.35,71.82L43.1,71.82L42.36,76.53C42.353,76.586 42.349,76.643 42.349,76.7C42.349,77.413 42.936,78 43.649,78C43.649,78 43.65,78 43.65,78L52.7,78C53.771,78.003 54.693,77.217 54.86,76.16L54.94,75.7L56.65,64.88L56.76,64.28C56.926,63.226 57.843,62.442 58.91,62.44L60.27,62.44C69.04,62.44 75.91,58.88 77.92,48.57C78.76,44.26 78.32,40.67 76.11,38.14C75.407,37.357 74.567,36.71 73.63,36.23" style="fill:rgb(0,154,222);fill-rule:nonzero;"/>
    </g>
    <path d="M73.63,36.23C74.31,31.87 73.63,28.91 71.27,26.23C68.67,23.26 64,22 58,22L40.58,22C39.362,22.004 38.315,22.897 38.12,24.1L30.88,70.1C30.867,70.179 30.86,70.26 30.86,70.34C30.86,71.152 31.529,71.82 32.34,71.82C32.344,71.82 32.347,71.82 32.35,71.82L43.1,71.82L45.8,54.71L45.71,55.25C45.896,54.045 46.941,53.145 48.16,53.14L53.27,53.14C63.27,53.14 71.15,49.07 73.45,37.28C73.52,36.94 73.57,36.6 73.63,36.28" style="fill:rgb(0,33,105);fill-rule:nonzero;"/>
    <g transform="matrix(1,0,0,1,-4,0)">
        <path d="M48.7,36.28C48.812,35.574 49.265,34.967 49.91,34.66C50.202,34.515 50.524,34.439 50.85,34.44L64.49,34.44C65.996,34.431 67.501,34.542 68.99,34.77L70.14,34.99C70.51,35.07 70.87,35.17 71.22,35.27L71.74,35.43C72.393,35.64 73.025,35.908 73.63,36.23C74.31,31.87 73.63,28.91 71.27,26.23C68.67,23.26 64,22 58,22L40.58,22C39.362,22.004 38.315,22.897 38.12,24.1L30.88,70.1C30.867,70.179 30.86,70.26 30.86,70.34C30.86,71.152 31.529,71.82 32.34,71.82C32.344,71.82 32.347,71.82 32.35,71.82L43.1,71.82L45.8,54.71L48.7,36.28Z" style="fill:rgb(0,47,135);fill-rule:nonzero;"/>
    </g>
</svg>
