<?xml version="1.0" encoding="UTF-8" standalone="no"?>
<!DOCTYPE svg PUBLIC "-//W3C//DTD SVG 1.1//EN" "http://www.w3.org/Graphics/SVG/1.1/DTD/svg11.dtd">
<svg width="100%" height="100%" viewBox="0 0 100 100" version="1.1" xmlns="http://www.w3.org/2000/svg" xmlns:xlink="http://www.w3.org/1999/xlink" xml:space="preserve" xmlns:serif="http://www.serif.com/" style="fill-rule:evenodd;clip-rule:evenodd;stroke-linejoin:round;stroke-miterlimit:2;">
    <path d="M99.5,10.37C99.5,4.923 95.077,0.5 89.63,0.5L10.37,0.5C4.923,0.5 0.5,4.923 0.5,10.37L0.5,89.63C0.5,95.077 4.923,99.5 10.37,99.5L89.63,99.5C95.077,99.5 99.5,95.077 99.5,89.63L99.5,10.37Z" style="fill:white;"/>
    <path d="M89.63,1C94.768,1.005 98.995,5.232 99,10.37L99,89.63C98.995,94.768 94.768,98.995 89.63,99L10.37,99C5.232,98.995 1.005,94.768 1,89.63L1,10.37C1.005,5.232 5.232,1.005 10.37,1L89.63,1M89.63,0L10.37,0C4.689,0.022 0.022,4.689 0,10.37L0,89.63C0.022,95.311 4.689,99.978 10.37,100L89.63,100C95.311,99.978 99.978,95.311 100,89.63L100,10.37C99.978,4.689 95.311,0.022 89.63,0Z" style="fill:rgb(168,168,167);fill-rule:nonzero;"/>
    <path d="M16.884,57.83C15.898,57.83 15.078,57.687 14.423,57.409C13.768,57.131 13.279,56.762 12.94,56.304C12.601,55.853 12.428,55.364 12.406,54.853C12.406,54.77 12.436,54.703 12.504,54.635C12.571,54.567 12.647,54.537 12.737,54.537L14.603,54.537C14.739,54.537 14.844,54.56 14.919,54.612C14.995,54.657 15.063,54.725 15.123,54.8C15.198,54.951 15.311,55.093 15.454,55.229C15.597,55.364 15.785,55.477 16.026,55.56C16.259,55.642 16.553,55.687 16.884,55.687C17.456,55.687 17.892,55.597 18.179,55.424C18.465,55.251 18.615,55.003 18.615,54.703C18.615,54.477 18.54,54.297 18.382,54.154C18.224,54.018 17.968,53.891 17.622,53.778C17.268,53.665 16.801,53.545 16.222,53.432C15.469,53.274 14.829,53.071 14.302,52.816C13.775,52.567 13.369,52.237 13.098,51.823C12.82,51.417 12.684,50.906 12.684,50.289C12.684,49.688 12.857,49.147 13.196,48.673C13.535,48.2 14.016,47.831 14.626,47.56C15.236,47.297 15.966,47.162 16.801,47.162C17.486,47.162 18.081,47.252 18.6,47.433C19.119,47.613 19.556,47.846 19.91,48.147C20.263,48.448 20.534,48.756 20.715,49.087C20.895,49.417 20.993,49.741 21.001,50.056C21.001,50.139 20.971,50.207 20.918,50.274C20.865,50.335 20.79,50.372 20.685,50.372L18.728,50.372C18.623,50.372 18.525,50.35 18.449,50.312C18.367,50.274 18.299,50.207 18.239,50.117C18.179,49.899 18.02,49.711 17.772,49.545C17.524,49.387 17.193,49.305 16.786,49.305C16.35,49.305 16.011,49.38 15.77,49.53C15.529,49.688 15.409,49.921 15.409,50.237C15.409,50.432 15.477,50.605 15.612,50.756C15.747,50.906 15.966,51.034 16.282,51.139C16.59,51.244 17.019,51.357 17.561,51.477C18.457,51.643 19.187,51.853 19.736,52.109C20.286,52.364 20.7,52.688 20.956,53.086C21.219,53.485 21.347,53.988 21.347,54.59C21.347,55.259 21.151,55.838 20.767,56.319C20.384,56.8 19.857,57.176 19.187,57.439C18.532,57.695 17.765,57.83 16.884,57.83Z" style="fill:rgb(0,53,142);fill-rule:nonzero;"/>
    <path d="M23.206,57.68C23.101,57.68 23.01,57.642 22.943,57.567C22.875,57.492 22.837,57.409 22.837,57.311L22.837,47.688C22.837,47.583 22.875,47.493 22.943,47.425C23.01,47.358 23.101,47.32 23.206,47.32L27.353,47.32C28.174,47.32 28.889,47.448 29.491,47.696C30.1,47.951 30.574,48.327 30.913,48.831C31.252,49.335 31.425,49.974 31.425,50.74C31.425,51.5 31.252,52.124 30.913,52.62C30.574,53.116 30.1,53.477 29.491,53.718C28.881,53.951 28.174,54.071 27.353,54.071L25.592,54.071L25.592,57.311C25.592,57.409 25.554,57.499 25.479,57.567C25.404,57.635 25.314,57.68 25.208,57.68L23.206,57.68ZM25.547,52.026L27.278,52.026C27.699,52.026 28.038,51.921 28.294,51.703C28.542,51.485 28.67,51.154 28.67,50.711C28.67,50.335 28.565,50.019 28.347,49.763C28.128,49.508 27.775,49.38 27.278,49.38L25.547,49.38L25.547,52.026Z" style="fill:rgb(0,53,142);fill-rule:nonzero;"/>
    <path d="M33.224,57.68C33.118,57.68 33.028,57.642 32.96,57.567C32.893,57.492 32.855,57.409 32.855,57.311L32.855,47.688C32.855,47.583 32.893,47.493 32.96,47.425C33.028,47.358 33.111,47.32 33.224,47.32L37.25,47.32C38.537,47.32 39.538,47.613 40.276,48.2C41.006,48.786 41.375,49.62 41.375,50.695C41.375,51.395 41.209,51.989 40.871,52.47C40.532,52.951 40.088,53.319 39.538,53.567L41.571,57.206C41.601,57.266 41.616,57.319 41.616,57.371C41.616,57.447 41.586,57.522 41.518,57.589C41.45,57.65 41.382,57.687 41.3,57.687L39.328,57.687C39.139,57.687 39.004,57.642 38.914,57.544C38.823,57.454 38.763,57.364 38.718,57.289L37.032,54.033L35.519,54.033L35.519,57.319C35.519,57.416 35.482,57.507 35.406,57.574C35.331,57.642 35.241,57.687 35.135,57.687L33.224,57.687L33.224,57.68ZM35.519,51.921L37.22,51.921C37.687,51.921 38.033,51.808 38.266,51.583C38.5,51.357 38.613,51.049 38.613,50.665C38.613,50.282 38.5,49.974 38.281,49.733C38.063,49.5 37.709,49.38 37.22,49.38L35.519,49.38L35.519,51.921Z" style="fill:rgb(0,53,142);fill-rule:nonzero;"/>
    <path d="M42.496,57.679C42.421,57.679 42.346,57.649 42.278,57.582C42.21,57.522 42.18,57.447 42.18,57.364C42.18,57.311 42.188,57.274 42.195,57.228L45.68,47.726C45.71,47.621 45.77,47.523 45.868,47.44C45.958,47.357 46.094,47.312 46.259,47.312L48.45,47.312C48.615,47.312 48.751,47.35 48.841,47.44C48.931,47.523 48.999,47.621 49.029,47.726L52.499,57.228C52.521,57.266 52.529,57.311 52.529,57.364C52.529,57.439 52.499,57.514 52.431,57.582C52.371,57.642 52.288,57.679 52.205,57.679L50.384,57.679C50.233,57.679 50.128,57.642 50.053,57.567C49.977,57.492 49.932,57.424 49.91,57.364L49.33,55.853L45.371,55.853L44.807,57.364C44.784,57.424 44.739,57.492 44.671,57.567C44.604,57.642 44.483,57.679 44.318,57.679L42.496,57.679ZM45.981,53.725L48.736,53.725L47.358,49.816L45.981,53.725Z" style="fill:rgb(0,53,142);fill-rule:nonzero;"/>
    <path d="M55.547,57.679C55.449,57.679 55.359,57.642 55.291,57.567C55.216,57.492 55.178,57.409 55.178,57.311L55.178,54.131L51.739,47.794C51.731,47.763 51.716,47.741 51.709,47.711C51.701,47.681 51.694,47.658 51.694,47.628C51.694,47.545 51.724,47.478 51.791,47.41C51.859,47.342 51.934,47.312 52.025,47.312L53.876,47.312C54.027,47.312 54.14,47.35 54.222,47.425C54.305,47.5 54.365,47.568 54.395,47.628L56.518,51.447L58.648,47.628C58.678,47.568 58.731,47.5 58.821,47.425C58.904,47.35 59.024,47.312 59.167,47.312L61.019,47.312C61.109,47.312 61.184,47.342 61.244,47.41C61.305,47.47 61.335,47.545 61.335,47.628C61.335,47.658 61.335,47.681 61.327,47.711C61.32,47.733 61.312,47.763 61.305,47.794L57.865,54.131L57.865,57.311C57.865,57.409 57.827,57.499 57.752,57.567C57.677,57.642 57.587,57.679 57.481,57.679L55.547,57.679Z" style="fill:rgb(0,53,142);fill-rule:nonzero;"/>
    <path d="M62.968,57.68C62.863,57.68 62.772,57.642 62.705,57.567C62.637,57.492 62.599,57.409 62.599,57.311L62.599,47.688C62.599,47.583 62.637,47.493 62.705,47.425C62.772,47.358 62.863,47.32 62.968,47.32L67.115,47.32C67.935,47.32 68.65,47.448 69.253,47.696C69.862,47.951 70.336,48.327 70.675,48.831C71.014,49.335 71.187,49.974 71.187,50.74C71.187,51.5 71.014,52.124 70.675,52.62C70.336,53.116 69.862,53.477 69.253,53.718C68.643,53.951 67.935,54.071 67.115,54.071L65.354,54.071L65.354,57.311C65.354,57.409 65.316,57.499 65.241,57.567C65.166,57.642 65.075,57.68 64.97,57.68L62.968,57.68ZM65.309,52.026L67.04,52.026C67.461,52.026 67.8,51.921 68.056,51.703C68.304,51.485 68.432,51.154 68.432,50.711C68.432,50.335 68.327,50.019 68.109,49.763C67.89,49.508 67.537,49.38 67.04,49.38L65.309,49.38L65.309,52.026Z" style="fill:rgb(0,169,206);fill-rule:nonzero;"/>
    <path d="M71.315,57.68C71.24,57.68 71.164,57.65 71.097,57.582C71.029,57.522 70.999,57.447 70.999,57.364C70.999,57.311 71.006,57.274 71.014,57.228L74.498,47.726C74.528,47.621 74.589,47.523 74.687,47.44C74.777,47.358 74.912,47.312 75.078,47.312L77.268,47.312C77.434,47.312 77.569,47.35 77.659,47.44C77.75,47.523 77.818,47.621 77.848,47.726L81.317,57.228C81.34,57.266 81.347,57.311 81.347,57.364C81.347,57.439 81.317,57.514 81.25,57.582C81.189,57.642 81.107,57.68 81.024,57.68L79.202,57.68C79.052,57.68 78.947,57.642 78.871,57.567C78.796,57.492 78.751,57.424 78.728,57.364L78.149,55.853L74.19,55.853L73.625,57.364C73.603,57.424 73.558,57.492 73.49,57.567C73.422,57.642 73.302,57.68 73.136,57.68L71.315,57.68ZM74.792,53.725L77.547,53.725L76.169,49.816L74.792,53.725Z" style="fill:rgb(0,169,206);fill-rule:nonzero;"/>
    <path d="M84.366,57.68C84.268,57.68 84.177,57.642 84.11,57.567C84.034,57.492 83.997,57.409 83.997,57.311L83.997,54.131L80.557,47.794C80.55,47.764 80.534,47.741 80.527,47.711C80.519,47.688 80.512,47.658 80.512,47.628C80.512,47.545 80.542,47.478 80.61,47.41C80.678,47.342 80.753,47.312 80.843,47.312L82.695,47.312C82.845,47.312 82.958,47.35 83.041,47.425C83.124,47.5 83.184,47.568 83.214,47.628L85.336,51.447L87.466,47.628C87.496,47.568 87.549,47.5 87.639,47.425C87.722,47.35 87.843,47.312 87.986,47.312L89.837,47.312C89.928,47.312 90.003,47.342 90.063,47.41C90.123,47.47 90.153,47.545 90.153,47.628C90.153,47.658 90.153,47.681 90.146,47.711C90.138,47.733 90.131,47.764 90.123,47.794L86.684,54.131L86.684,57.311C86.684,57.409 86.646,57.499 86.571,57.567C86.495,57.642 86.405,57.68 86.3,57.68L84.366,57.68Z" style="fill:rgb(0,169,206);fill-rule:nonzero;"/>
    <path d="M28.204,64.649C27.918,64.649 27.669,64.596 27.474,64.483C27.278,64.371 27.127,64.213 27.022,64.01C26.917,63.807 26.864,63.574 26.856,63.318C26.856,63.168 26.849,63.01 26.849,62.837C26.849,62.671 26.849,62.514 26.856,62.356C26.864,62.093 26.924,61.859 27.022,61.657C27.127,61.454 27.278,61.303 27.474,61.19C27.669,61.078 27.91,61.025 28.196,61.025C28.429,61.025 28.625,61.063 28.791,61.13C28.956,61.198 29.092,61.288 29.197,61.386C29.302,61.491 29.378,61.589 29.43,61.694C29.483,61.799 29.506,61.882 29.513,61.957C29.513,61.987 29.506,62.01 29.491,62.032C29.468,62.048 29.445,62.063 29.408,62.063L29.295,62.063C29.265,62.063 29.242,62.055 29.227,62.04C29.212,62.025 29.197,62.002 29.19,61.965C29.159,61.859 29.099,61.762 29.024,61.664C28.949,61.566 28.836,61.491 28.708,61.431C28.572,61.371 28.407,61.341 28.204,61.341C27.903,61.341 27.662,61.423 27.474,61.581C27.285,61.739 27.188,62.017 27.173,62.393C27.165,62.694 27.165,62.995 27.173,63.295C27.188,63.671 27.285,63.942 27.474,64.107C27.662,64.273 27.903,64.356 28.204,64.356C28.399,64.356 28.58,64.318 28.738,64.243C28.896,64.168 29.016,64.055 29.114,63.897C29.205,63.739 29.25,63.544 29.25,63.303L29.25,63.032L28.369,63.032C28.339,63.032 28.309,63.025 28.286,63.002C28.264,62.98 28.256,62.95 28.256,62.92L28.256,62.852C28.256,62.814 28.264,62.784 28.286,62.769C28.309,62.747 28.331,62.739 28.369,62.739L29.445,62.739C29.483,62.739 29.513,62.747 29.528,62.769C29.551,62.792 29.558,62.814 29.558,62.852L29.558,63.295C29.558,63.566 29.506,63.799 29.4,64.002C29.295,64.205 29.137,64.363 28.934,64.483C28.738,64.588 28.49,64.649 28.204,64.649Z" style="fill:rgb(0,53,142);fill-rule:nonzero;"/>
    <path d="M30.702,64.596C30.672,64.596 30.642,64.588 30.62,64.566C30.597,64.543 30.589,64.521 30.589,64.483L30.589,61.19C30.589,61.153 30.597,61.123 30.62,61.108C30.642,61.085 30.665,61.078 30.702,61.078L32.667,61.078C32.704,61.078 32.734,61.085 32.749,61.108C32.772,61.13 32.78,61.153 32.78,61.19L32.78,61.266C32.78,61.296 32.772,61.326 32.749,61.348C32.727,61.371 32.704,61.378 32.667,61.378L30.906,61.378L30.906,62.664L32.554,62.664C32.592,62.664 32.622,62.671 32.637,62.694C32.659,62.717 32.667,62.739 32.667,62.777L32.667,62.852C32.667,62.882 32.659,62.912 32.637,62.935C32.614,62.957 32.592,62.965 32.554,62.965L30.906,62.965L30.906,64.295L32.704,64.295C32.742,64.295 32.772,64.303 32.787,64.325C32.81,64.348 32.817,64.371 32.817,64.408L32.817,64.483C32.817,64.513 32.81,64.543 32.787,64.566C32.765,64.588 32.742,64.596 32.704,64.596L30.702,64.596Z" style="fill:rgb(0,53,142);fill-rule:nonzero;"/>
    <path d="M34.88,64.649C34.609,64.649 34.375,64.603 34.187,64.521C33.999,64.431 33.848,64.318 33.751,64.183C33.653,64.047 33.593,63.897 33.593,63.746C33.593,63.716 33.6,63.694 33.623,63.679C33.645,63.656 33.668,63.649 33.698,63.649L33.796,63.649C33.826,63.649 33.856,63.656 33.871,63.679C33.886,63.701 33.901,63.724 33.901,63.746C33.916,63.837 33.954,63.934 34.029,64.025C34.097,64.115 34.202,64.198 34.345,64.258C34.481,64.318 34.661,64.348 34.88,64.348C35.211,64.348 35.452,64.288 35.602,64.168C35.753,64.047 35.828,63.889 35.828,63.686C35.828,63.551 35.79,63.446 35.707,63.363C35.632,63.28 35.512,63.205 35.346,63.145C35.188,63.077 34.977,63.01 34.729,62.927C34.488,62.852 34.292,62.769 34.142,62.687C33.984,62.604 33.871,62.506 33.803,62.386C33.728,62.266 33.698,62.115 33.698,61.935C33.698,61.762 33.743,61.611 33.833,61.476C33.924,61.341 34.059,61.236 34.232,61.153C34.405,61.07 34.616,61.033 34.864,61.033C35.06,61.033 35.233,61.063 35.384,61.115C35.534,61.168 35.655,61.243 35.753,61.326C35.85,61.416 35.926,61.506 35.971,61.611C36.024,61.717 36.046,61.814 36.054,61.912C36.054,61.935 36.046,61.957 36.031,61.98C36.016,62.002 35.986,62.01 35.948,62.01L35.85,62.01C35.835,62.01 35.813,62.002 35.79,61.987C35.768,61.972 35.753,61.95 35.745,61.905C35.722,61.739 35.64,61.596 35.482,61.491C35.324,61.378 35.12,61.326 34.872,61.326C34.624,61.326 34.42,61.371 34.262,61.469C34.104,61.566 34.029,61.717 34.029,61.927C34.029,62.063 34.067,62.168 34.134,62.258C34.202,62.348 34.315,62.416 34.466,62.484C34.616,62.551 34.812,62.619 35.053,62.694C35.301,62.777 35.512,62.852 35.677,62.935C35.843,63.017 35.963,63.115 36.046,63.228C36.129,63.341 36.167,63.491 36.167,63.679C36.167,63.882 36.114,64.055 36.016,64.198C35.911,64.34 35.768,64.446 35.579,64.521C35.369,64.611 35.143,64.649 34.88,64.649Z" style="fill:rgb(0,53,142);fill-rule:nonzero;"/>
    <path d="M37.235,64.596C37.205,64.596 37.175,64.588 37.152,64.566C37.13,64.543 37.122,64.521 37.122,64.483L37.122,61.19C37.122,61.153 37.13,61.123 37.152,61.108C37.175,61.085 37.198,61.078 37.235,61.078L38.462,61.078C38.695,61.078 38.899,61.115 39.072,61.198C39.245,61.281 39.38,61.393 39.478,61.551C39.576,61.702 39.621,61.897 39.621,62.123C39.621,62.348 39.576,62.544 39.478,62.694C39.38,62.852 39.245,62.965 39.072,63.04C38.899,63.123 38.695,63.16 38.462,63.16L37.446,63.16L37.446,64.491C37.446,64.521 37.439,64.551 37.416,64.573C37.393,64.596 37.371,64.603 37.333,64.603L37.235,64.603L37.235,64.596ZM37.439,62.852L38.432,62.852C38.725,62.852 38.944,62.792 39.087,62.664C39.23,62.536 39.298,62.356 39.298,62.115C39.298,61.874 39.23,61.694 39.087,61.566C38.944,61.439 38.725,61.378 38.432,61.378L37.439,61.378L37.439,62.852Z" style="fill:rgb(0,53,142);fill-rule:nonzero;"/>
    <path d="M40.645,64.596C40.615,64.596 40.585,64.588 40.562,64.566C40.539,64.543 40.532,64.521 40.532,64.483L40.532,61.19C40.532,61.153 40.539,61.123 40.562,61.108C40.585,61.085 40.607,61.078 40.645,61.078L41.819,61.078C42.173,61.078 42.451,61.16 42.662,61.326C42.873,61.491 42.978,61.747 42.978,62.093C42.978,62.363 42.91,62.574 42.775,62.739C42.639,62.897 42.451,63.01 42.218,63.062L43.031,64.438C43.038,64.461 43.046,64.476 43.046,64.491C43.046,64.521 43.038,64.543 43.016,64.558C42.993,64.581 42.97,64.588 42.948,64.588L42.888,64.588C42.835,64.588 42.797,64.573 42.767,64.543C42.737,64.513 42.715,64.483 42.699,64.453L41.894,63.108L40.855,63.108L40.855,64.483C40.855,64.513 40.848,64.543 40.825,64.566C40.803,64.588 40.78,64.596 40.743,64.596L40.645,64.596ZM40.855,62.807L41.796,62.807C42.09,62.807 42.308,62.747 42.451,62.626C42.594,62.506 42.662,62.326 42.662,62.093C42.662,61.852 42.594,61.679 42.451,61.559C42.308,61.439 42.09,61.378 41.796,61.378L40.855,61.378L40.855,62.807Z" style="fill:rgb(0,53,142);fill-rule:nonzero;"/>
    <path d="M44.122,64.596C44.092,64.596 44.062,64.588 44.039,64.566C44.017,64.543 44.009,64.521 44.009,64.483L44.009,61.19C44.009,61.153 44.017,61.123 44.039,61.108C44.062,61.085 44.084,61.078 44.122,61.078L46.086,61.078C46.124,61.078 46.154,61.085 46.169,61.108C46.192,61.13 46.199,61.153 46.199,61.19L46.199,61.266C46.199,61.296 46.192,61.326 46.169,61.348C46.147,61.371 46.124,61.378 46.086,61.378L44.325,61.378L44.325,62.664L45.973,62.664C46.011,62.664 46.041,62.671 46.056,62.694C46.079,62.717 46.086,62.739 46.086,62.777L46.086,62.852C46.086,62.882 46.079,62.912 46.056,62.935C46.034,62.957 46.011,62.965 45.973,62.965L44.325,62.965L44.325,64.295L46.124,64.295C46.161,64.295 46.192,64.303 46.207,64.325C46.229,64.348 46.237,64.371 46.237,64.408L46.237,64.483C46.237,64.513 46.229,64.543 46.207,64.566C46.184,64.588 46.161,64.596 46.124,64.596L44.122,64.596Z" style="fill:rgb(0,53,142);fill-rule:nonzero;"/>
    <path d="M47.358,64.596C47.328,64.596 47.298,64.588 47.275,64.566C47.253,64.543 47.245,64.521 47.245,64.483L47.245,61.183C47.245,61.153 47.253,61.123 47.275,61.1C47.298,61.078 47.321,61.07 47.358,61.07L47.456,61.07C47.486,61.07 47.516,61.078 47.539,61.1C47.561,61.123 47.569,61.145 47.569,61.183L47.569,64.483C47.569,64.513 47.561,64.543 47.539,64.566C47.516,64.588 47.494,64.596 47.456,64.596L47.358,64.596Z" style="fill:rgb(0,53,142);fill-rule:nonzero;"/>
    <path d="M48.871,64.596C48.841,64.596 48.811,64.588 48.788,64.566C48.766,64.543 48.758,64.521 48.758,64.483L48.758,61.19C48.758,61.153 48.766,61.123 48.788,61.108C48.811,61.085 48.833,61.078 48.871,61.078L49.947,61.078C50.301,61.078 50.58,61.13 50.783,61.236C50.986,61.341 51.129,61.491 51.212,61.694C51.295,61.897 51.34,62.145 51.347,62.438C51.347,62.589 51.355,62.724 51.355,62.837C51.355,62.95 51.355,63.085 51.347,63.235C51.34,63.544 51.295,63.799 51.212,64.002C51.129,64.205 50.986,64.355 50.79,64.453C50.595,64.551 50.324,64.603 49.977,64.603L48.871,64.603L48.871,64.596ZM49.082,64.295L49.947,64.295C50.218,64.295 50.429,64.258 50.587,64.19C50.745,64.115 50.858,64.002 50.926,63.844C50.993,63.686 51.031,63.476 51.031,63.213C51.031,63.115 51.039,63.025 51.039,62.95L51.039,62.724C51.039,62.649 51.039,62.566 51.031,62.461C51.024,62.093 50.941,61.822 50.775,61.642C50.61,61.469 50.324,61.378 49.925,61.378L49.082,61.378L49.082,64.295Z" style="fill:rgb(0,53,142);fill-rule:nonzero;"/>
    <path d="M54.087,64.596C54.057,64.596 54.027,64.588 54.004,64.566C53.981,64.543 53.974,64.521 53.974,64.483L53.974,61.19C53.974,61.153 53.981,61.123 54.004,61.108C54.027,61.085 54.049,61.078 54.087,61.078L55.404,61.078C55.637,61.078 55.833,61.123 55.984,61.205C56.134,61.288 56.239,61.401 56.315,61.536C56.382,61.672 56.42,61.822 56.42,61.98C56.42,62.123 56.397,62.25 56.352,62.348C56.307,62.453 56.247,62.536 56.179,62.596C56.111,62.656 56.044,62.709 55.976,62.739C56.111,62.807 56.232,62.912 56.33,63.062C56.428,63.213 56.488,63.386 56.488,63.604C56.488,63.769 56.45,63.934 56.367,64.085C56.292,64.235 56.172,64.363 56.014,64.461C55.856,64.558 55.667,64.603 55.434,64.603L54.087,64.603L54.087,64.596ZM54.29,62.604L55.336,62.604C55.585,62.604 55.773,62.551 55.901,62.438C56.029,62.326 56.096,62.175 56.096,61.972C56.096,61.777 56.029,61.626 55.901,61.521C55.773,61.416 55.585,61.371 55.336,61.371L54.29,61.371L54.29,62.604ZM54.29,64.295L55.381,64.295C55.63,64.295 55.825,64.228 55.961,64.1C56.096,63.972 56.164,63.807 56.164,63.604C56.164,63.401 56.096,63.235 55.961,63.1C55.825,62.972 55.63,62.905 55.381,62.905L54.29,62.905L54.29,64.295Z" style="fill:rgb(0,53,142);fill-rule:nonzero;"/>
    <path d="M57.624,64.596C57.594,64.596 57.564,64.588 57.541,64.566C57.519,64.543 57.511,64.521 57.511,64.483L57.511,61.19C57.511,61.153 57.519,61.123 57.541,61.108C57.564,61.085 57.587,61.078 57.624,61.078L59.589,61.078C59.626,61.078 59.656,61.085 59.671,61.108C59.694,61.13 59.702,61.153 59.702,61.19L59.702,61.266C59.702,61.296 59.694,61.326 59.671,61.348C59.649,61.371 59.626,61.378 59.589,61.378L57.827,61.378L57.827,62.664L59.476,62.664C59.513,62.664 59.543,62.671 59.559,62.694C59.581,62.717 59.589,62.739 59.589,62.777L59.589,62.852C59.589,62.882 59.581,62.912 59.559,62.935C59.536,62.957 59.513,62.965 59.476,62.965L57.827,62.965L57.827,64.295L59.626,64.295C59.664,64.295 59.694,64.303 59.709,64.325C59.732,64.348 59.739,64.371 59.739,64.408L59.739,64.483C59.739,64.513 59.732,64.543 59.709,64.566C59.686,64.588 59.664,64.596 59.626,64.596L57.624,64.596Z" style="fill:rgb(0,53,142);fill-rule:nonzero;"/>
    <path d="M61.628,64.596C61.598,64.596 61.568,64.588 61.545,64.566C61.523,64.543 61.515,64.521 61.515,64.483L61.515,61.378L60.514,61.378C60.484,61.378 60.454,61.371 60.432,61.348C60.409,61.326 60.402,61.303 60.402,61.266L60.402,61.19C60.402,61.153 60.409,61.123 60.432,61.108C60.454,61.085 60.477,61.078 60.514,61.078L62.825,61.078C62.863,61.078 62.893,61.085 62.908,61.108C62.93,61.13 62.938,61.153 62.938,61.19L62.938,61.266C62.938,61.296 62.93,61.326 62.908,61.348C62.885,61.371 62.863,61.378 62.825,61.378L61.832,61.378L61.832,64.491C61.832,64.521 61.824,64.551 61.801,64.573C61.779,64.596 61.756,64.603 61.719,64.603L61.628,64.603L61.628,64.596Z" style="fill:rgb(0,53,142);fill-rule:nonzero;"/>
    <path d="M63.179,64.596C63.149,64.596 63.126,64.588 63.111,64.566C63.088,64.543 63.081,64.521 63.081,64.498C63.081,64.483 63.081,64.461 63.088,64.446L64.36,61.183C64.375,61.153 64.39,61.123 64.413,61.108C64.436,61.093 64.466,61.085 64.503,61.085L64.676,61.085C64.714,61.085 64.744,61.093 64.767,61.108C64.789,61.123 64.804,61.153 64.819,61.183L66.091,64.446C66.099,64.468 66.099,64.483 66.099,64.498C66.099,64.528 66.091,64.551 66.069,64.566C66.046,64.588 66.024,64.596 66.001,64.596L65.903,64.596C65.873,64.596 65.843,64.588 65.828,64.566C65.813,64.551 65.798,64.528 65.79,64.521L65.474,63.716L63.691,63.716L63.374,64.521C63.374,64.536 63.359,64.551 63.344,64.566C63.329,64.581 63.299,64.596 63.269,64.596L63.179,64.596ZM63.826,63.416L65.369,63.416L64.601,61.431L63.826,63.416Z" style="fill:rgb(0,53,142);fill-rule:nonzero;"/>
    <path d="M67.062,64.596C67.032,64.596 67.002,64.588 66.98,64.566C66.957,64.543 66.949,64.521 66.949,64.483L66.949,61.183C66.949,61.153 66.957,61.123 66.98,61.1C67.002,61.078 67.025,61.07 67.062,61.07L67.16,61.07C67.19,61.07 67.22,61.078 67.243,61.1C67.266,61.123 67.273,61.145 67.273,61.183L67.273,64.295L69.012,64.295C69.049,64.295 69.079,64.303 69.094,64.325C69.117,64.348 69.125,64.371 69.125,64.408L69.125,64.483C69.125,64.513 69.117,64.543 69.094,64.566C69.072,64.588 69.049,64.596 69.012,64.596L67.062,64.596Z" style="fill:rgb(0,53,142);fill-rule:nonzero;"/>
    <path d="M70.08,64.596C70.05,64.596 70.02,64.588 69.998,64.566C69.975,64.543 69.968,64.521 69.968,64.483L69.968,61.19C69.968,61.153 69.975,61.123 69.998,61.108C70.02,61.085 70.043,61.078 70.08,61.078L72.045,61.078C72.082,61.078 72.113,61.085 72.128,61.108C72.15,61.13 72.158,61.153 72.158,61.19L72.158,61.266C72.158,61.296 72.15,61.326 72.128,61.348C72.105,61.371 72.082,61.378 72.045,61.378L70.284,61.378L70.284,62.664L71.932,62.664C71.97,62.664 72,62.671 72.015,62.694C72.037,62.717 72.045,62.739 72.045,62.777L72.045,62.852C72.045,62.882 72.037,62.912 72.015,62.935C71.992,62.957 71.97,62.965 71.932,62.965L70.284,62.965L70.284,64.295L72.082,64.295C72.12,64.295 72.15,64.303 72.165,64.325C72.188,64.348 72.195,64.371 72.195,64.408L72.195,64.483C72.195,64.513 72.188,64.543 72.165,64.566C72.143,64.588 72.12,64.596 72.082,64.596L70.08,64.596Z" style="fill:rgb(0,53,142);fill-rule:nonzero;"/>
    <path d="M73.309,64.596C73.279,64.596 73.249,64.588 73.226,64.566C73.204,64.543 73.196,64.521 73.196,64.483L73.196,61.19C73.196,61.153 73.204,61.123 73.226,61.108C73.249,61.085 73.272,61.078 73.309,61.078L73.415,61.078C73.445,61.078 73.475,61.085 73.49,61.1C73.505,61.115 73.52,61.13 73.52,61.138L75.379,63.972L75.379,61.19C75.379,61.153 75.387,61.123 75.409,61.108C75.432,61.085 75.454,61.078 75.492,61.078L75.582,61.078C75.62,61.078 75.65,61.085 75.665,61.108C75.688,61.13 75.695,61.153 75.695,61.19L75.695,64.483C75.695,64.513 75.688,64.543 75.665,64.566C75.642,64.588 75.62,64.596 75.582,64.596L75.469,64.596C75.439,64.596 75.409,64.588 75.394,64.573C75.379,64.558 75.371,64.543 75.364,64.536L73.512,61.709L73.512,64.483C73.512,64.513 73.505,64.543 73.482,64.566C73.46,64.588 73.437,64.596 73.4,64.596L73.309,64.596Z" style="fill:rgb(0,53,142);fill-rule:nonzero;"/>
    <path d="M36.317,42.493C35.941,42.493 35.64,42.185 35.64,41.817L35.64,34.344C35.64,33.968 35.948,33.667 36.317,33.667C36.693,33.667 36.994,33.976 36.994,34.344L36.994,41.817C36.994,42.185 36.686,42.493 36.317,42.493Z" style="fill:url(#_Linear1);fill-rule:nonzero;"/>
    <path d="M39.034,43.335C38.658,43.335 38.357,43.027 38.357,42.659L38.357,35.863C38.357,35.487 38.665,35.186 39.034,35.186C39.41,35.186 39.711,35.494 39.711,35.863L39.711,42.659C39.711,43.027 39.41,43.335 39.034,43.335Z" style="fill:url(#_Linear2);fill-rule:nonzero;"/>
    <path d="M41.751,43.809C41.375,43.809 41.074,43.501 41.074,43.132L41.074,37.02C41.074,36.645 41.382,36.344 41.751,36.344C42.127,36.344 42.429,36.652 42.429,37.02L42.429,43.132C42.436,43.508 42.127,43.809 41.751,43.809Z" style="fill:url(#_Linear3);fill-rule:nonzero;"/>
    <path d="M44.476,43.974C44.099,43.974 43.798,43.666 43.798,43.298L43.798,37.862C43.798,37.486 44.107,37.186 44.476,37.186C44.852,37.186 45.153,37.494 45.153,37.862L45.153,43.298C45.153,43.666 44.852,43.974 44.476,43.974Z" style="fill:url(#_Linear4);fill-rule:nonzero;"/>
    <path d="M47.193,43.824C46.816,43.824 46.515,43.516 46.515,43.147L46.515,38.389C46.515,38.013 46.824,37.712 47.193,37.712C47.569,37.712 47.87,38.02 47.87,38.389L47.87,43.147C47.878,43.516 47.569,43.824 47.193,43.824Z" style="fill:url(#_Linear5);fill-rule:nonzero;"/>
    <path d="M49.917,43.403C49.541,43.403 49.24,43.095 49.24,42.726L49.24,38.652C49.24,38.276 49.548,37.975 49.917,37.975C50.294,37.975 50.595,38.283 50.595,38.652L50.595,42.726C50.595,43.095 50.286,43.403 49.917,43.403Z" style="fill:url(#_Linear6);fill-rule:nonzero;"/>
    <path d="M52.634,42.726C52.258,42.726 51.957,42.418 51.957,42.05L51.957,38.652C51.957,38.276 52.266,37.975 52.634,37.975C53.011,37.975 53.312,38.283 53.312,38.652L53.312,42.05C53.312,42.418 53.011,42.726 52.634,42.726Z" style="fill:url(#_Linear7);fill-rule:nonzero;"/>
    <path d="M55.359,41.787C54.983,41.787 54.681,41.478 54.681,41.11L54.681,38.396C54.681,38.02 54.99,37.719 55.359,37.719C55.735,37.719 56.036,38.028 56.036,38.396L56.036,41.11C56.036,41.478 55.728,41.787 55.359,41.787Z" style="fill:url(#_Linear8);fill-rule:nonzero;"/>
    <path d="M58.076,40.576C57.7,40.576 57.398,40.268 57.398,39.9L57.398,37.862C57.398,37.486 57.707,37.186 58.076,37.186C58.452,37.186 58.753,37.494 58.753,37.862L58.753,39.9C58.753,40.276 58.452,40.576 58.076,40.576Z" style="fill:url(#_Linear9);fill-rule:nonzero;"/>
    <path d="M60.793,39.058C60.417,39.058 60.115,38.75 60.115,38.381L60.115,37.02C60.115,36.645 60.424,36.344 60.793,36.344C61.169,36.344 61.47,36.652 61.47,37.02L61.47,38.381C61.478,38.75 61.169,39.058 60.793,39.058Z" style="fill:url(#_Linear10);fill-rule:nonzero;"/>
    <path d="M63.517,37.223C63.141,37.223 62.84,36.915 62.84,36.547L62.84,35.87C62.84,35.494 63.149,35.194 63.517,35.194C63.894,35.194 64.195,35.502 64.195,35.87L64.195,36.547C64.195,36.915 63.894,37.223 63.517,37.223Z" style="fill:url(#_Linear11);fill-rule:nonzero;"/>
    <path d="M66.234,35.021C65.858,35.021 65.557,34.712 65.557,34.344C65.557,33.968 65.866,33.667 66.234,33.667C66.611,33.667 66.912,33.976 66.912,34.344C66.919,34.712 66.611,35.021 66.234,35.021Z" style="fill:url(#_Linear12);fill-rule:nonzero;"/>
    <defs>
        <linearGradient id="_Linear1" x1="0" y1="0" x2="1" y2="0" gradientUnits="userSpaceOnUse" gradientTransform="matrix(31.1186,0,0,31.1186,35.7062,38.0782)"><stop offset="0" style="stop-color:rgb(0,53,142);stop-opacity:1"/><stop offset="1" style="stop-color:rgb(0,169,206);stop-opacity:1"/></linearGradient>
        <linearGradient id="_Linear2" x1="0" y1="0" x2="1" y2="0" gradientUnits="userSpaceOnUse" gradientTransform="matrix(31.1186,0,0,31.1186,35.7062,39.2602)"><stop offset="0" style="stop-color:rgb(0,53,142);stop-opacity:1"/><stop offset="1" style="stop-color:rgb(0,169,206);stop-opacity:1"/></linearGradient>
        <linearGradient id="_Linear3" x1="0" y1="0" x2="1" y2="0" gradientUnits="userSpaceOnUse" gradientTransform="matrix(31.1186,0,0,31.1186,35.7062,40.0753)"><stop offset="0" style="stop-color:rgb(0,53,142);stop-opacity:1"/><stop offset="1" style="stop-color:rgb(0,169,206);stop-opacity:1"/></linearGradient>
        <linearGradient id="_Linear4" x1="0" y1="0" x2="1" y2="0" gradientUnits="userSpaceOnUse" gradientTransform="matrix(31.1186,0,0,31.1186,35.7062,40.578)"><stop offset="0" style="stop-color:rgb(0,53,142);stop-opacity:1"/><stop offset="1" style="stop-color:rgb(0,169,206);stop-opacity:1"/></linearGradient>
        <linearGradient id="_Linear5" x1="0" y1="0" x2="1" y2="0" gradientUnits="userSpaceOnUse" gradientTransform="matrix(31.1186,0,0,31.1186,35.7062,40.7682)"><stop offset="0" style="stop-color:rgb(0,53,142);stop-opacity:1"/><stop offset="1" style="stop-color:rgb(0,169,206);stop-opacity:1"/></linearGradient>
        <linearGradient id="_Linear6" x1="0" y1="0" x2="1" y2="0" gradientUnits="userSpaceOnUse" gradientTransform="matrix(31.1186,0,0,31.1186,35.7062,40.6867)"><stop offset="0" style="stop-color:rgb(0,53,142);stop-opacity:1"/><stop offset="1" style="stop-color:rgb(0,169,206);stop-opacity:1"/></linearGradient>
        <linearGradient id="_Linear7" x1="0" y1="0" x2="1" y2="0" gradientUnits="userSpaceOnUse" gradientTransform="matrix(31.1185,0,0,31.1185,35.7063,40.347)"><stop offset="0" style="stop-color:rgb(0,53,142);stop-opacity:1"/><stop offset="1" style="stop-color:rgb(0,169,206);stop-opacity:1"/></linearGradient>
        <linearGradient id="_Linear8" x1="0" y1="0" x2="1" y2="0" gradientUnits="userSpaceOnUse" gradientTransform="matrix(31.1185,0,0,31.1185,35.7063,39.7493)"><stop offset="0" style="stop-color:rgb(0,53,142);stop-opacity:1"/><stop offset="1" style="stop-color:rgb(0,169,206);stop-opacity:1"/></linearGradient>
        <linearGradient id="_Linear9" x1="0" y1="0" x2="1" y2="0" gradientUnits="userSpaceOnUse" gradientTransform="matrix(31.1186,0,0,31.1186,35.7062,38.8797)"><stop offset="0" style="stop-color:rgb(0,53,142);stop-opacity:1"/><stop offset="1" style="stop-color:rgb(0,169,206);stop-opacity:1"/></linearGradient>
        <linearGradient id="_Linear10" x1="0" y1="0" x2="1" y2="0" gradientUnits="userSpaceOnUse" gradientTransform="matrix(31.1186,0,0,31.1186,35.7062,37.6978)"><stop offset="0" style="stop-color:rgb(0,53,142);stop-opacity:1"/><stop offset="1" style="stop-color:rgb(0,169,206);stop-opacity:1"/></linearGradient>
        <linearGradient id="_Linear11" x1="0" y1="0" x2="1" y2="0" gradientUnits="userSpaceOnUse" gradientTransform="matrix(31.1186,0,0,31.1186,35.7062,36.2033)"><stop offset="0" style="stop-color:rgb(0,53,142);stop-opacity:1"/><stop offset="1" style="stop-color:rgb(0,169,206);stop-opacity:1"/></linearGradient>
        <linearGradient id="_Linear12" x1="0" y1="0" x2="1" y2="0" gradientUnits="userSpaceOnUse" gradientTransform="matrix(31.1186,0,0,31.1186,35.7062,34.342)"><stop offset="0" style="stop-color:rgb(0,53,142);stop-opacity:1"/><stop offset="1" style="stop-color:rgb(0,169,206);stop-opacity:1"/></linearGradient>
    </defs>
</svg>
